<svg xmlns="http://www.w3.org/2000/svg" width="400" height="400" viewBox="0 0 400 400">
  <rect width="400" height="400" fill="#f3f4f6"/>
  <g transform="translate(100, 100) scale(8)">
    <path d="M21 19V5a2 2 0 0 0-2-2H5a2 2 0 0 0-2 2v14a2 2 0 0 0 2 2h14a2 2 0 0 0 2-2z" fill="none" stroke="#9ca3af" stroke-width="1" stroke-linecap="round" stroke-linejoin="round"/>
    <path d="M8.5 10a1.5 1.5 0 1 0 0-3 1.5 1.5 0 0 0 0 3z" fill="#9ca3af" stroke="none"/>
    <path d="M21 15l-5-5L5 21" fill="none" stroke="#9ca3af" stroke-width="1" stroke-linecap="round" stroke-linejoin="round"/>
  </g>
</svg>